PathFileType	4	(x/y/z)	S05_PSF_T06
DataRate	CameraRate	NumFrames	NumMarkers	Units	OrigDataRate	OrigDataStartFrame	OrigNumFrames
240	240	10	50	mm	240	269	430
Frame#	Time	Sternum			R.Acromium			L.Acromium			Top.Head			R.ASIS			L.ASIS			R.PSIS			L.PSIS			R.Great.Tro			L.Great.Tro			R.Iliac.Crest			L.Iliac.Crest			V.Sacral			R.Thigh.Upper.Post			R.Thigh.Lower.Ant			R.Thigh.Lower.Post			R.Thigh.Upper.Ant			R.Knee.Lat			R.Knee.Med			R.Shank.Upper.Post			R.Shank.Lower.Ant			R.Shank.Lower.Post			R.Shank.Upper.Ant			R.Ankle.Lat			R.Ankle.Med			R.Heel.Upper			R.Heel.Med			R.Heel.Lat			R.Toe.Lat			R.Toe.Med			R.Toe.Tip			L.Thigh.Upper.Post			L.Thigh.Lower.Ant			L.Thigh.Lower.Post			L.Thigh.Upper.Ant			L.Knee.Lat			L.Shank.Upper.Post			L.Shank.Lower.Ant			L.Shank.Lower.Post			L.Shank.Upper.Ant			L.Ankle.Lat			L.Ankle.Med			L.Heel.Upper			L.Heel.Med			L.Heel.Lat			L.Toe.Lat			L.Toe.Med			L.Toe.Tip			Cervical.Spine			Back			
		X1	Y1	Z1	X2	Y2	Z2	X3	Y3	Z3	X4	Y4	Z4	X5	Y5	Z5	X6	Y6	Z6	X7	Y7	Z7	X8	Y8	Z8	X9	Y9	Z9	X10	Y10	Z10	X11	Y11	Z11	X12	Y12	Z12	X13	Y13	Z13	X14	Y14	Z14	X15	Y15	Z15	X16	Y16	Z16	X17	Y17	Z17	X18	Y18	Z18	X19	Y19	Z19	X20	Y20	Z20	X21	Y21	Z21	X22	Y22	Z22	X23	Y23	Z23	X24	Y24	Z24	X25	Y25	Z25	X26	Y26	Z26	X27	Y27	Z27	X28	Y28	Z28	X29	Y29	Z29	X30	Y30	Z30	X31	Y31	Z31	X32	Y32	Z32	X33	Y33	Z33	X34	Y34	Z34	X35	Y35	Z35	X36	Y36	Z36	X37	Y37	Z37	X38	Y38	Z38	X39	Y39	Z39	X40	Y40	Z40	X41	Y41	Z41	X42	Y42	Z42	X43	Y43	Z43	X44	Y44	Z44	X45	Y45	Z45	X46	Y46	Z46	X47	Y47	Z47	X48	Y48	Z48	X49	Y49	Z49	X50	Y50	Z50	

269	1.1167	-6.4368	1238.3	306.23	-92.031	1500	461.86	-108.38	1517.6	138.46	-85.966	1809.5	285.68	-85.739	991.66	442.8	-58.737	992.89	192.26	-274.97	1018.2	331.5	-263.67	1010.2	241.24	-186.51	921.66	493.23	-130.36	908.52	106.99	-173.45	1080	469.06	-149.22	1070	133.16	-285.3	981.78	299.3	-192.4	699.1	482.99	-156.24	615.06	435.8	-225.72	617.85	458.23	-124.77	695.78	462.64	-265.06	524.84	435.11	-256.85	511.87	301.5	-409.49	315.47	418.71	-366.48	235.26	415.56	-428.58	242.96	398.38	-345.45	308.76	432.4	-411.1	137.26	396.67	-392.78	162.52	307.96	-490.37	97.728	331.46	-483.85	63.787	305.92	-487.58	70.734	370.21	-329.84	37.181	433.56	-287.91	36.094	314.77	-225.65	45.954	362.91	-65.416	677.51	107.34	30.996	630.85	135.5	-28.347	590.55	122.81	1.3425	716.34	122.5	17.766	514.19	134.15	49.04	307.7	132.53	136.35	289.48	127.6	84.23	244.28	149.41	99.19	349.45	118.15	187.43	134.21	149.83	216.59	171.36	230.22	170.87	62.288	208.27	197.38	51.908	239.62	185.8	38.792	180.14	334.47	129.75	105.28	355.71	164.53	218.26	396.73	205.01	157.24	-141.05	1548.3	306.96	-265.13	1279.2	304.62
270	1.1208	-0.95332	1237.1	305.73	-86.503	1499.1	461.06	-102.92	1516.4	137.61	-80.692	1808.5	284.54	-80.47	990.69	442.59	-53.18	991.85	192.1	-269.6	1017.4	330.92	-258.19	1009.2	240.67	-181.68	920.96	492.87	-124.42	907.62	106.58	-168.25	1079.1	468.67	-143.65	1068.9	132.73	-279.88	980.9	298.73	-188.49	698.52	482.92	-152.61	614.26	435.9	-222.13	617.38	458.16	-120.84	694.92	462.69	-261.92	524.53	435.06	-253.58	511.38	301.47	-407.65	316.03	418.71	-365.17	235.54	415.57	-427.18	243.66	398.4	-343.67	308.91	432.42	-410.47	137.82	396.68	-391.95	163.03	307.95	-489.99	98.691	331.51	-483.63	64.733	305.95	-487.3	71.661	370.26	-329.79	37.214	433.59	-287.83	36.081	314.79	-225.59	45.832	362.94	-58.802	677	107.22	37.565	630.53	135.92	-21.632	590.1	122.81	7.7926	715.96	122.82	24.454	513.74	134.12	55.397	307.2	132.19	142.68	288.81	127.73	90.353	243.69	149.14	105.7	348.86	118.21	193.26	133.59	149.83	222.1	170.47	230.51	176.26	61.607	208.05	202.74	51.084	239.45	191.31	38.197	179.95	340.37	129.06	105.86	361.26	163.42	219.04	402.54	204.03	158.3	-135.5	1547.3	306.13	-259.69	1278.2	304.08
271	1.125	4.5504	1235.9	305.21	-80.941	1498.2	460.24	-97.436	1515.1	136.74	-75.409	1807.5	283.37	-75.19	989.74	442.36	-47.596	990.85	191.93	-264.22	1016.5	330.34	-252.69	1008.3	240.09	-176.82	920.28	492.49	-118.46	906.77	106.15	-163.02	1078.2	468.26	-138.07	1067.8	132.29	-274.45	980.04	298.15	-184.5	697.96	482.83	-148.9	613.49	435.99	-218.44	616.93	458.09	-116.84	694.08	462.74	-258.66	524.21	435.02	-250.19	510.88	301.47	-405.73	316.62	418.73	-363.79	235.85	415.59	-425.71	244.39	398.44	-341.79	309.08	432.44	-409.79	138.42	396.71	-391.08	163.57	307.96	-489.57	99.731	331.58	-483.39	65.756	306	-487.01	72.656	370.32	-329.74	37.252	433.63	-287.74	36.069	314.81	-225.53	45.714	362.97	-52.026	676.59	107.12	44.316	630.36	136.35	-14.717	589.79	122.83	14.394	715.71	123.14	31.282	513.38	134.1	61.557	306.74	131.9	148.76	288.03	127.9	96.162	243.08	148.92	112.07	348.22	118.3	198.56	132.81	149.86	227.16	169.36	230.83	180.98	60.848	207.86	207.44	50.124	239.32	196.11	37.499	179.8	345.69	127.94	106.42	366.34	161.81	219.8	407.92	202.47	159.32	-129.92	1546.3	305.28	-254.24	1277.3	303.54
272	1.1292	10.076	1234.7	304.67	-75.344	1497.3	459.4	-91.939	1513.8	135.85	-70.115	1806.5	282.17	-69.896	988.82	442.11	-41.981	989.91	191.75	-258.82	1015.7	329.74	-247.17	1007.5	239.5	-171.94	919.61	492.09	-112.48	905.98	105.72	-157.76	1077.3	467.86	-132.5	1066.8	131.84	-268.99	979.2	297.55	-180.44	697.43	482.73	-145.09	612.74	436.09	-214.65	616.48	458.01	-112.78	693.29	462.78	-255.28	523.89	434.99	-246.68	510.38	301.48	-403.71	317.24	418.76	-362.34	236.18	415.62	-424.17	245.16	398.5	-339.84	309.27	432.48	-409.08	139.07	396.76	-390.16	164.15	307.99	-489.12	100.85	331.68	-483.13	66.863	306.06	-486.68	73.723	370.4	-329.68	37.295	433.67	-287.65	36.057	314.85	-225.47	45.598	362.99	-45.112	676.28	107.03	51.222	630.32	136.78	-7.6342	589.59	122.88	21.128	715.59	123.45	38.226	513.09	134.1	67.524	306.33	131.64	154.61	287.15	128.11	101.67	242.47	148.73	118.31	347.54	118.43	203.35	131.89	149.91	231.8	168.04	231.16	185.09	60.029	207.7	211.54	49.05	239.22	200.23	36.716	179.68	350.45	126.42	106.96	370.97	159.74	220.52	412.89	200.38	160.28	-124.32	1545.4	304.4	-248.76	1276.4	302.99
273	1.1333	15.624	1233.6	304.11	-69.711	1496.4	458.54	-86.425	1512.6	134.94	-64.809	1805.6	280.95	-64.589	987.92	441.86	-36.328	989.01	191.55	-253.4	1014.9	329.14	-241.62	1006.6	238.9	-167.03	918.97	491.67	-106.48	905.25	105.27	-152.46	1076.5	467.44	-126.91	1065.8	131.37	-263.51	978.39	296.94	-176.31	696.91	482.61	-141.19	612.03	436.19	-210.77	616.05	457.94	-108.65	692.53	462.81	-251.79	523.58	434.97	-243.04	509.87	301.51	-401.61	317.9	418.8	-360.82	236.54	415.67	-422.56	245.97	398.56	-337.79	309.47	432.53	-408.31	139.76	396.83	-389.19	164.77	308.03	-488.62	102.06	331.79	-482.83	68.058	306.13	-486.33	74.869	370.5	-329.61	37.344	433.71	-287.56	36.045	314.88	-225.41	45.486	363.01	-38.088	676.06	106.96	58.254	630.4	137.21	-0.41838	589.49	122.96	27.971	715.57	123.74	45.256	512.86	134.12	73.302	305.94	131.43	160.24	286.18	128.35	106.9	241.85	148.57	124.42	346.82	118.58	207.68	130.84	149.98	236.07	166.55	231.5	188.63	59.175	207.57	215.07	47.889	239.15	203.74	35.872	179.59	354.71	124.54	107.47	375.2	157.26	221.21	417.51	197.8	161.19	-118.7	1544.5	303.49	-243.26	1275.6	302.44
274	1.1375	21.197	1232.4	303.53	-64.043	1495.6	457.66	-80.898	1511.4	134	-59.492	1804.7	279.7	-59.266	987.06	441.59	-30.633	988.17	191.33	-247.95	1014.2	328.52	-236.04	1005.8	238.29	-162.09	918.34	491.22	-100.45	904.58	104.82	-147.12	1075.7	467.01	-121.31	1064.8	130.89	-257.99	977.62	296.31	-172.1	696.42	482.47	-137.19	611.35	436.29	-206.79	615.64	457.87	-104.44	691.81	462.84	-248.18	523.28	434.95	-239.27	509.36	301.55	-399.41	318.6	418.86	-359.24	236.95	415.73	-420.87	246.84	398.63	-335.66	309.71	432.6	-407.49	140.51	396.91	-388.15	165.43	308.1	-488.07	103.37	331.93	-482.49	69.35	306.22	-485.94	76.1	370.61	-329.54	37.401	433.75	-287.47	36.033	314.92	-225.35	45.376	363.03	-30.983	675.91	106.92	65.379	630.56	137.63	6.8935	589.47	123.08	34.898	715.64	124.02	52.343	512.69	134.15	78.899	305.59	131.25	165.65	285.14	128.62	111.87	241.22	148.45	130.38	346.06	118.77	211.6	129.69	150.07	239.99	164.91	231.86	191.66	58.313	207.47	218.08	46.67	239.11	206.68	34.994	179.54	358.51	122.33	107.94	379.07	154.41	221.85	421.79	194.78	162.03	-113.05	1543.6	302.56	-237.74	1274.8	301.89
275	1.1417	26.796	1231.4	302.92	-58.337	1494.9	456.76	-75.355	1510.3	133.05	-54.163	1803.9	278.42	-53.924	986.24	441.31	-24.893	987.39	191.11	-242.46	1013.5	327.89	-230.42	1005.1	237.66	-157.1	917.75	490.75	-94.39	903.97	104.37	-141.74	1074.9	466.57	-115.68	1063.9	130.4	-252.44	976.88	295.67	-167.82	695.96	482.32	-133.09	610.72	436.4	-202.71	615.25	457.79	-100.17	691.13	462.85	-244.46	522.99	434.95	-235.37	508.86	301.61	-397.12	319.35	418.92	-357.57	237.39	415.81	-419.1	247.76	398.7	-333.44	309.97	432.67	-406.61	141.32	397	-387.06	166.15	308.19	-487.47	104.78	332.09	-482.11	70.744	306.32	-485.51	77.422	370.74	-329.45	37.465	433.8	-287.37	36.02	314.97	-225.29	45.27	363.04	-23.829	675.83	106.91	72.564	630.8	138.05	14.263	589.53	123.23	41.884	715.78	124.28	59.456	512.56	134.21	84.323	305.27	131.1	170.87	284.03	128.9	116.6	240.59	148.35	136.21	345.28	118.98	215.15	128.45	150.18	243.63	163.15	232.21	194.24	57.471	207.4	220.64	45.425	239.09	209.13	34.11	179.51	361.89	119.83	108.38	382.63	151.24	222.44	425.78	191.37	162.79	-107.38	1542.8	301.61	-232.19	1274	301.33
276	1.1458	32.423	1230.3	302.3	-52.595	1494.2	455.84	-69.798	1509.2	132.07	-48.82	1803	277.12	-48.562	985.47	441.01	-19.101	986.67	190.87	-236.93	1012.8	327.25	-224.76	1004.4	237.02	-152.08	917.19	490.26	-88.297	903.42	103.92	-136.33	1074.2	466.12	-110.02	1063.1	129.88	-246.85	976.18	295.01	-163.46	695.54	482.16	-128.89	610.12	436.5	-198.52	614.88	457.71	-95.814	690.5	462.86	-240.61	522.72	434.94	-231.33	508.36	301.68	-394.73	320.15	418.99	-355.84	237.88	415.9	-417.25	248.74	398.77	-331.13	310.28	432.76	-405.67	142.19	397.12	-385.89	166.91	308.29	-486.8	106.29	332.26	-481.68	72.247	306.43	-485.03	78.841	370.89	-329.36	37.539	433.84	-287.27	36.007	315.03	-225.23	45.168	363.05	-16.655	675.8	106.92	79.777	631.09	138.46	21.653	589.64	123.41	48.904	715.98	124.51	66.565	512.48	134.27	89.584	304.97	131	175.9	282.88	129.21	121.12	239.96	148.29	141.89	344.48	119.21	218.38	127.16	150.3	247.01	161.31	232.56	196.43	56.678	207.35	222.8	44.187	239.1	211.14	33.25	179.5	364.92	117.09	108.78	385.9	147.81	222.99	429.53	187.62	163.48	-101.68	1542	300.63	-226.62	1273.3	300.76
277	1.15	38.08	1229.3	301.65	-46.817	1493.5	454.89	-64.227	1508.1	131.07	-43.465	1802.3	275.79	-43.176	984.73	440.71	-13.257	986.02	190.61	-231.36	1012.1	326.58	-219.06	1003.7	236.36	-147	916.66	489.75	-82.169	902.93	103.46	-130.87	1073.5	465.65	-104.32	1062.3	129.35	-241.21	975.52	294.33	-159.01	695.14	481.97	-124.58	609.57	436.6	-194.24	614.53	457.62	-91.377	689.92	462.87	-236.64	522.47	434.95	-227.15	507.87	301.76	-392.25	321	419.06	-354.03	238.42	416.01	-415.32	249.79	398.83	-328.73	310.62	432.85	-404.67	143.13	397.24	-384.65	167.72	308.42	-486.06	107.91	332.44	-481.2	73.864	306.55	-484.5	80.365	371.04	-329.26	37.623	433.89	-287.17	35.993	315.09	-225.18	45.068	363.06	-9.4906	675.81	106.95	86.985	631.42	138.84	29.025	589.79	123.62	55.931	716.21	124.71	73.641	512.44	134.35	94.693	304.71	130.94	180.76	281.71	129.53	125.45	239.35	148.26	147.45	343.67	119.46	221.34	125.83	150.43	250.19	159.41	232.91	198.29	55.96	207.33	224.62	42.986	239.14	212.79	32.441	179.52	367.64	114.15	109.15	388.94	144.17	223.47	433.06	183.6	164.08	-95.96	1541.2	299.63	-221.01	1272.6	300.19
278	1.1542	43.769	1228.4	300.99	-41.004	1492.9	453.93	-58.641	1507.1	130.04	-38.095	1801.6	274.44	-37.763	984.05	440.39	-7.3568	985.43	190.35	-225.75	1011.5	325.91	-213.31	1003.1	235.69	-141.88	916.16	489.21	-76.004	902.5	103.01	-125.36	1072.9	465.16	-98.571	1061.5	128.81	-235.53	974.91	293.62	-154.48	694.79	481.77	-120.15	609.05	436.7	-189.84	614.21	457.53	-86.853	689.38	462.88	-232.54	522.24	434.95	-222.83	507.39	301.85	-389.66	321.91	419.12	-352.13	239.02	416.12	-413.29	250.9	398.89	-326.24	311.02	432.95	-403.59	144.13	397.38	-383.32	168.58	308.57	-485.23	109.66	332.64	-480.65	75.603	306.66	-483.91	81.998	371.2	-329.15	37.72	433.94	-287.06	35.978	315.15	-225.12	44.97	363.07	-2.3644	675.86	107.01	94.157	631.76	139.2	36.346	589.98	123.86	62.942	716.46	124.87	80.658	512.43	134.43	99.664	304.46	130.91	185.46	280.54	129.85	129.62	238.75	148.26	152.87	342.87	119.71	224.08	124.5	150.57	253.2	157.5	233.24	199.9	55.34	207.34	226.16	41.848	239.19	214.13	31.707	179.56	370.1	111.06	109.47	391.78	140.37	223.9	436.41	179.36	164.6	-90.22	1540.6	298.61	-215.37	1272	299.6
